# xmcd
#
# Track frame offsets:
#	150
#	16462
#	37255
#	50532
#	64265
#	78680
#	89307
#	103245
#	117392
#	132765
#	146382
#	160975
#	177240
#	191957
#	209030
#	229540
#	245695
#	260202
#
# Disc length: 3668 seconds
#
# Revision: 0
# Processed by: cddbd v1.5.2PL0 Copyright (c) Steve Scherf et al.
# Submitted via: EasyCDDAExtractor 16.1.0.1
#
DISCID=170e5212
DTITLE=Joan Baez
DYEAR=1991
DGENRE=Country
TTITLE0=The River In The Pines
TTITLE1=The Wild Mountain Thyme
TTITLE2=Once I Had A Sweetheart
TTITLE3=Jackaroe
TTITLE4=Manha De Carnival
TTITLE5=Queen Of Hearts
TTITLE6=Blessed Are
TTITLE7=Plaisir D'Amour
TTITLE8=The Night They Drove Old Dixie Down
TTITLE9=Help Me Make It Through The Night
TTITLE10=Donna Donna
TTITLE11=Heaven Help Us All
TTITLE12=There But For Fortune
TTITLE13=I Pitty The Poor Immigrant
TTITLE14=Poor Way Faring Stranger
TTITLE15=Love Is Just A Four-Letter Word
TTITLE16=Green Green Grass Of Home
TTITLE17=Kumbaya
EXTD=
EXTT0=
EXTT1=
EXTT2=
EXTT3=
EXTT4=
EXTT5=
EXTT6=
EXTT7=
EXTT8=
EXTT9=
EXTT10=
EXTT11=
EXTT12=
EXTT13=
EXTT14=
EXTT15=
EXTT16=
EXTT17=
PLAYORDER=
